Coordinates
version=1
nRows=7
nColumns=40
inDegrees=yes

Units are S.I. units (second, meters, Newtons, ...)
If the header above contains a line with 'inDegrees', this indicates whether rotational values are in degrees (yes) or radians (no).

endheader
time	pelvis_tilt	pelvis_list	pelvis_rotation	pelvis_tx	pelvis_ty	pelvis_tz	hip_flexion_r	hip_adduction_r	hip_rotation_r	knee_angle_r	knee_angle_r_beta	ankle_angle_r	subtalar_angle_r	mtp_angle_r	hip_flexion_l	hip_adduction_l	hip_rotation_l	knee_angle_l	knee_angle_l_beta	ankle_angle_l	subtalar_angle_l	mtp_angle_l	lumbar_extension	lumbar_bending	lumbar_rotation	arm_flex_r	arm_add_r	arm_rot_r	elbow_flex_r	pro_sup_r	wrist_flex_r	wrist_dev_r	arm_flex_l	arm_add_l	arm_rot_l	elbow_flex_l	pro_sup_l	wrist_flex_l	wrist_dev_l
     12.42500000	     -9.35609934	     12.91994455	      6.46667358	     -0.26162005	      1.06948643	      0.25897520	     42.47613654	    -23.18986365	     -0.30400503	     44.47475286	      0.77623087	    -14.33017458	     -6.87134668	      0.00000000	     89.38477681	     -1.52031414	     -9.05270345	    112.70945244	      1.96715104	     23.82716041	     -0.52469000	      0.00000000	    -51.00342144	     -8.37080339	    -16.29008937	     89.74048423	    -12.24709505	     44.29662149	     30.83408237	     88.13885639	      0.00000000	      0.00000000	     89.85087883	     -8.30495612	     34.29014631	     38.85519260	     88.94384013	      0.00000000	      0.00000000
     12.43333333	    -10.02181803	     12.88688601	      6.35047419	     -0.26210541	      1.07064230	      0.25866861	     43.29496377	    -22.85518229	      0.69597257	     46.76048241	      0.81612438	    -13.35190924	     -8.29311924	      0.00000000	     90.08811291	     -1.41952090	     -9.31868416	    110.36480174	      1.92622917	     24.18002445	     -1.30740961	      0.00000000	    -50.58007952	     -8.51540792	    -16.20869567	     89.74616711	    -12.35617394	     44.07539698	     31.13237229	     88.14135317	      0.00000000	      0.00000000	     89.85217780	     -8.24975282	     34.03806925	     38.99125141	     88.94843794	      0.00000000	      0.00000000
     12.44166667	    -10.56453224	     12.79275928	      6.11291211	     -0.26259491	      1.07185271	      0.25877495	     44.30492658	    -22.39435828	      1.74832301	     49.52726712	      0.86441388	    -12.22449024	     -9.54823061	      0.00000000	     90.27278188	     -1.49197018	     -9.56857771	    107.39938329	      1.87447285	     23.63607443	     -1.10094502	      0.00000000	    -50.25264906	     -8.67325116	    -16.00905547	     89.75247940	    -12.47285731	     43.85127302	     31.44938293	     88.15080172	      0.00000000	      0.00000000	     89.85403877	     -8.24064391	     33.83184114	     39.23684973	     88.95361780	      0.00000000	      0.00000000
     12.45000000	    -10.58430990	     12.32339954	      5.92140806	     -0.26276399	      1.07378802	      0.25879822	     44.72678865	    -21.78075276	      2.18772715	     52.50494254	      0.91638412	    -11.04890326	    -10.11263459	      0.00000000	     89.66339364	     -1.33653221	     -9.25704725	    104.43108678	      1.82266631	     23.09169121	     -1.05589300	      0.00000000	    -50.38313129	     -8.35474099	    -15.53415398	     89.77168421	    -12.67577424	     43.57783287	     31.92782405	     88.11405336	      0.00000000	      0.00000000	     89.85750217	     -8.20656150	     33.59503725	     39.59402554	     88.94989553	      0.00000000	      0.00000000
     12.45833333	    -11.16736241	     12.31931848	      5.61805877	     -0.26365140	      1.07474341	      0.25874005	     46.28307191	    -21.35462754	      3.47159326	     55.90259770	      0.97568439	     -9.06884770	    -11.37185059	      0.00000000	     89.21778296	     -1.25902865	     -9.44343834	    100.95744464	      1.76203981	     22.36158696	     -0.90497393	      0.00000000	    -50.01235771	     -8.57610437	    -15.30544258	     89.76409946	    -12.91071250	     43.24805949	     32.50842453	     88.17857356	      0.00000000	      0.00000000	     89.85815436	     -8.18962039	     33.28336043	     39.79285380	     88.96448657	      0.00000000	      0.00000000
     12.46666667	    -11.68845726	     12.58151215	      4.96630758	     -0.26453008	      1.07550478	      0.25912131	     48.25190756	    -20.90536534	      5.20640934	     59.62183452	      1.04059732	     -7.68958058	    -11.76164600	      0.00000000	     88.30431524	     -1.42830524	     -9.88464880	     97.17308209	      1.69599023	     21.74632478	     -0.98067774	      0.00000000	    -49.68511858	     -9.24218705	    -15.08216770	     89.77541178	    -13.04798956	     43.22889841	     32.86812763	     88.20818476	      0.00000000	      0.00000000	     89.85946620	     -8.21832804	     33.25783596	     40.01883466	     88.95051145	      0.00000000	      0.00000000
     12.47500000	    -11.63659646	     12.17926772	      4.61890839	     -0.26490413	      1.07676572	      0.25925431	     49.31255599	    -20.29227701	      5.80801564	     63.37840083	      1.10616177	     -5.79657245	    -12.06656537	      0.00000000	     86.65738932	     -1.12693042	     -9.31615223	     93.49339677	      1.63176760	     20.82338251	     -0.48435279	      0.00000000	    -49.80419481	     -9.03439167	    -14.51023732	     89.78303005	    -13.27368362	     42.94743634	     33.49948732	     88.19826236	      0.00000000	      0.00000000	     89.85954160	     -8.19489706	     33.04216971	     40.24423685	     88.94869561	      0.00000000	      0.00000000
